<?xml version="1.0" encoding="UTF-8" standalone="no"?>
<svg
   xmlns:dc="http://purl.org/dc/elements/1.1/"
   xmlns:cc="http://creativecommons.org/ns#"
   xmlns:rdf="http://www.w3.org/1999/02/22-rdf-syntax-ns#"
   xmlns:svg="http://www.w3.org/2000/svg"
   xmlns="http://www.w3.org/2000/svg"
   xmlns:sodipodi="http://sodipodi.sourceforge.net/DTD/sodipodi-0.dtd"
   xmlns:inkscape="http://www.inkscape.org/namespaces/inkscape"
   fill="#000000"
   height="48"
   viewBox="0 0 24 24"
   width="48"
   version="1.1"
   id="svg6"
   sodipodi:docname="close.svg"
   inkscape:version="0.92.2 (5c3e80d, 2017-08-06)">
  <metadata
     id="metadata12">
    <rdf:RDF>
      <cc:Work
         rdf:about="">
        <dc:format>image/svg+xml</dc:format>
        <dc:type
           rdf:resource="http://purl.org/dc/dcmitype/StillImage" />
      </cc:Work>
    </rdf:RDF>
  </metadata>
  <defs
     id="defs10" />
  <sodipodi:namedview
     pagecolor="#ffffff"
     bordercolor="#666666"
     borderopacity="1"
     objecttolerance="10"
     gridtolerance="10"
     guidetolerance="10"
     inkscape:pageopacity="0"
     inkscape:pageshadow="2"
     inkscape:window-width="1920"
     inkscape:window-height="1017"
     id="namedview8"
     showgrid="false"
     inkscape:zoom="13.906433"
     inkscape:cx="21.857563"
     inkscape:cy="22.343237"
     inkscape:window-x="-8"
     inkscape:window-y="-8"
     inkscape:window-maximized="1"
     inkscape:current-layer="svg6" />
  <path
     d="M0 0h24v24H0z"
     fill="none"
     id="path4" />
  <path
     inkscape:connector-curvature="0"
     d="m 12,2.0000002 c -5.5199998,0 -10.0000002,4.48 -10.0000002,9.9999998 0,5.52 4.4800004,10 10.0000002,10 5.52,0 10,-4.48 10,-10 C 22,6.4800002 17.52,2.0000002 12,2.0000002 Z M 12,20 C 7.5900002,20 3.9999998,16.41 3.9999998,12 3.9999998,7.5900002 7.5900002,4.0000002 12,4.0000002 c 4.41,0 8,3.59 8,7.9999998 0,4.41 -3.59,8 -8,8 z"
     id="path4-9"
     style="fill:#323232;fill-opacity:1;stroke-width:1"
     sodipodi:nodetypes="ssssssssss" />
  <path
     id="path832"
     style="fill:none;stroke:#323232;stroke-width:1.75;stroke-linecap:butt;stroke-linejoin:miter;stroke-miterlimit:4;stroke-dasharray:none;stroke-opacity:1"
     d="m 8.228564,15.771435 7.542871,-7.542871 m -7.542871,0 7.542871,7.542871"
     inkscape:connector-curvature="0" />
</svg>
