<?xml version="1.0" encoding="utf-8"?>
<!-- Svg Vector Icons : http://www.onlinewebfonts.com/icon -->
<!DOCTYPE svg PUBLIC "-//W3C//DTD SVG 1.1//EN" "http://www.w3.org/Graphics/SVG/1.1/DTD/svg11.dtd">
<svg version="1.1" xmlns="http://www.w3.org/2000/svg" xmlns:xlink="http://www.w3.org/1999/xlink" x="0px" y="0px" viewBox="0 0 1000 1000" enable-background="new 0 0 1000 1000" xml:space="preserve">
<metadata> Svg Vector Icons : http://www.onlinewebfonts.com/icon </metadata>
<g><path d="M924.3,550.8c0-12-9.1-18-27.2-18H338.6c-13.7,0-28.3,3.7-43.9,11c-15.6,7.4-27.8,16.3-36.7,26.9L107.1,757.2c-6.2,8.2-9.2,15.1-9.2,20.5c0,12,9.1,18,27.2,18h558.5c13.7,0,28.4-3.8,44.2-11.3c15.7-7.5,27.9-16.6,36.4-27.2l150.9-186.3C921.2,563.3,924.3,556.6,924.3,550.8L924.3,550.8z M338.6,467.1h394.2V385c0-13.7-4.8-25.3-14.4-34.9c-9.6-9.6-21.2-14.4-34.9-14.4H387.9c-13.7,0-25.3-4.8-34.9-14.4c-9.6-9.6-14.4-21.2-14.4-34.9v-32.9c0-13.7-4.8-25.3-14.4-34.9c-9.6-9.6-21.2-14.4-34.9-14.4H125c-13.7,0-25.3,4.8-34.9,14.4c-9.6,9.6-14.4,21.2-14.4,34.9v437.9l131.4-161.7c15.1-18.1,34.9-33.1,59.6-44.9C291.4,473,315.3,467.1,338.6,467.1L338.6,467.1z M990,550.8c0,21.2-7.9,41.8-23.6,61.6L815,798.8c-14.7,18.1-34.6,33.1-59.6,44.9c-25,11.8-49,17.7-71.9,17.7H125c-31.5,0-58.5-11.3-81.1-33.9C21.3,804.9,10,777.9,10,746.4V253.6c0-31.5,11.3-58.5,33.9-81.1c22.6-22.6,49.6-33.9,81.1-33.9h164.3c31.5,0,58.5,11.3,81.1,33.9c22.6,22.6,33.9,49.6,33.9,81.1V270h279.3c31.5,0,58.5,11.3,81.1,33.9c22.6,22.6,33.9,49.6,33.9,81.1v82.1h98.6c18.5,0,35.4,4.2,50.8,12.6c15.4,8.4,26.9,20.5,34.4,36.2C987.4,526.9,990,538.5,990,550.8L990,550.8z"/></g>
</svg>