<?xml version="1.0" encoding="UTF-8" standalone="no"?>
<svg
   xmlns:dc="http://purl.org/dc/elements/1.1/"
   xmlns:cc="http://creativecommons.org/ns#"
   xmlns:rdf="http://www.w3.org/1999/02/22-rdf-syntax-ns#"
   xmlns:svg="http://www.w3.org/2000/svg"
   xmlns="http://www.w3.org/2000/svg"
   xmlns:sodipodi="http://sodipodi.sourceforge.net/DTD/sodipodi-0.dtd"
   xmlns:inkscape="http://www.inkscape.org/namespaces/inkscape"
   version="1"
   viewBox="0 0 42.18029 32"
   enable-background="new 0 0 48 48"
   id="svg6"
   sodipodi:docname="folder4.svg"
   width="42.18029"
   height="32"
   inkscape:version="0.92.2 (5c3e80d, 2017-08-06)">
  <metadata
     id="metadata12">
    <rdf:RDF>
      <cc:Work
         rdf:about="">
        <dc:format>image/svg+xml</dc:format>
        <dc:type
           rdf:resource="http://purl.org/dc/dcmitype/StillImage" />
        <dc:title></dc:title>
      </cc:Work>
    </rdf:RDF>
  </metadata>
  <defs
     id="defs10" />
  <sodipodi:namedview
     pagecolor="#ffffff"
     bordercolor="#666666"
     borderopacity="1"
     objecttolerance="10"
     gridtolerance="10"
     guidetolerance="10"
     inkscape:pageopacity="0"
     inkscape:pageshadow="2"
     inkscape:window-width="1920"
     inkscape:window-height="1017"
     id="namedview8"
     showgrid="false"
     fit-margin-top="0"
     fit-margin-left="0"
     fit-margin-right="0"
     fit-margin-bottom="0"
     inkscape:zoom="4.9166667"
     inkscape:cx="20"
     inkscape:cy="16"
     inkscape:window-x="-8"
     inkscape:window-y="-8"
     inkscape:window-maximized="1"
     inkscape:current-layer="svg6" />
  <path
     d="M 34,4 H 18 L 14,0 H 4 C 1.8,0 0,1.8 0,4 v 24 c 0,2.2 1.8,4 4,4 h 31 c 1.7,0 3,-1.3 3,-3 V 8 C 38,5.8 36.2,4 34,4 Z"
     id="path2"
     inkscape:connector-curvature="0"
     style="fill:#ffa000" />
  <path
     d="M 38.2,10 H 11.3 C 9.4,10 7.7,11.4 7.4,13.3 L 4,32 h 31.7 c 1.9,0 3.6,-1.4 3.9,-3.3 l 2.5,-14 C 42.6,12.3 40.7,10 38.2,10 Z"
     id="path4"
     inkscape:connector-curvature="0"
     style="fill:#ffca28" />
</svg>
