<?xml version="1.0" encoding="UTF-8" standalone="no"?>
<svg
   xmlns:dc="http://purl.org/dc/elements/1.1/"
   xmlns:cc="http://creativecommons.org/ns#"
   xmlns:rdf="http://www.w3.org/1999/02/22-rdf-syntax-ns#"
   xmlns:svg="http://www.w3.org/2000/svg"
   xmlns="http://www.w3.org/2000/svg"
   xmlns:sodipodi="http://sodipodi.sourceforge.net/DTD/sodipodi-0.dtd"
   xmlns:inkscape="http://www.inkscape.org/namespaces/inkscape"
   fill="#000000"
   height="48"
   viewBox="0 0 24 24"
   width="48"
   version="1.1"
   id="svg6"
   sodipodi:docname="load.svg"
   inkscape:version="0.92.2 (5c3e80d, 2017-08-06)">
  <metadata
     id="metadata12">
    <rdf:RDF>
      <cc:Work
         rdf:about="">
        <dc:format>image/svg+xml</dc:format>
        <dc:type
           rdf:resource="http://purl.org/dc/dcmitype/StillImage" />
      </cc:Work>
    </rdf:RDF>
  </metadata>
  <defs
     id="defs10">
    <inkscape:path-effect
       effect="bend_path"
       id="path-effect949"
       is_visible="true"
       bendpath="m 8.206996,12 h 7.586008"
       prop_scale="1"
       scale_y_rel="false"
       vertical="false" />
  </defs>
  <sodipodi:namedview
     pagecolor="#ffffff"
     bordercolor="#666666"
     borderopacity="1"
     objecttolerance="10"
     gridtolerance="10"
     guidetolerance="10"
     inkscape:pageopacity="0"
     inkscape:pageshadow="2"
     inkscape:window-width="1920"
     inkscape:window-height="1017"
     id="namedview8"
     showgrid="false"
     inkscape:zoom="16"
     inkscape:cx="26.363268"
     inkscape:cy="27.507975"
     inkscape:window-x="-8"
     inkscape:window-y="-8"
     inkscape:window-maximized="1"
     inkscape:current-layer="svg6" />
  <path
     style="color:#000000;font-style:normal;font-variant:normal;font-weight:normal;font-stretch:normal;font-size:medium;line-height:normal;font-family:sans-serif;font-variant-ligatures:normal;font-variant-position:normal;font-variant-caps:normal;font-variant-numeric:normal;font-variant-alternates:normal;font-feature-settings:normal;text-indent:0;text-align:start;text-decoration:none;text-decoration-line:none;text-decoration-style:solid;text-decoration-color:#000000;letter-spacing:normal;word-spacing:normal;text-transform:none;writing-mode:lr-tb;direction:ltr;text-orientation:mixed;dominant-baseline:auto;baseline-shift:baseline;text-anchor:start;white-space:normal;shape-padding:0;clip-rule:nonzero;display:inline;overflow:visible;visibility:visible;opacity:1;isolation:auto;mix-blend-mode:normal;color-interpolation:sRGB;color-interpolation-filters:linearRGB;solid-color:#000000;solid-opacity:1;vector-effect:none;fill:#b8860b;fill-opacity:1;fill-rule:nonzero;stroke:#b8860b;stroke-width:1.25;stroke-linecap:butt;stroke-linejoin:miter;stroke-miterlimit:4;stroke-dasharray:none;stroke-dashoffset:0;stroke-opacity:1;color-rendering:auto;image-rendering:auto;shape-rendering:auto;text-rendering:auto;enable-background:accumulate"
     d="m 9.3226858,7.3151041 c -0.6125826,0 -1.1107497,0.504456 -1.1107498,1.1156864 L 8.206996,15.56921 c 0,0.61123 0.498167,1.115686 1.1107496,1.115686 h 5.3595724 c 0.612583,0 1.115686,-0.503104 1.115686,-1.115686 V 10.122421 L 12.985693,7.3151041 Z m 0,0.4459455 h 2.9011132 v 1.5616322 0.7808162 c 0,0.407411 0.333054,0.780816 0.780816,0.780816 h 0.780816 1.561632 v 4.684896 c 0,0.369171 -0.300569,0.66974 -0.669742,0.66974 H 9.3177491 c -0.3687153,0 -0.6640735,-0.298207 -0.6648042,-0.668096 v -0.0016 l 0.00494,-7.1384186 c 0,-0.3705248 0.295632,-0.6697411 0.6648043,-0.6697411 z"
     id="path2"
     inkscape:connector-curvature="0"
     sodipodi:nodetypes="sccsssccscccccccsssccccc"
     inkscape:path-effect="#path-effect949"
     inkscape:original-d="m 9.3226858,7.3151042 c -0.6125826,0 -1.1107497,0.504456 -1.1107498,1.1156864 L 8.206996,15.56921 c 0,0.61123 0.498167,1.115686 1.1107496,1.115686 h 5.3595724 c 0.612583,0 1.115686,-0.503104 1.115686,-1.115686 V 10.122421 L 12.985693,7.3151042 Z m 0,0.4459455 h 2.9011132 v 1.5616322 0.7808161 c 0,0.407411 0.333054,0.780816 0.780816,0.780816 h 0.780816 1.561632 v 4.684896 c 0,0.369171 -0.300569,0.66974 -0.669742,0.66974 H 9.3177491 c -0.3687153,0 -0.6640735,-0.298207 -0.6648042,-0.668096 v -0.0016 l 0.00494,-7.1384185 c 0,-0.3705248 0.295632,-0.6697411 0.6648043,-0.6697411 z" />
  <path
     d="M0 0h24v24H0z"
     fill="none"
     id="path4" />
  <path
     inkscape:connector-curvature="0"
     d="M 12,2 C 6.48,2 2,6.48 2,12 2,17.52 6.48,22 12,22 17.52,22 22,17.52 22,12 22,6.48 17.52,2 12,2 Z m 0,18 C 7.59,20 4,16.41 4,12 4,7.59 7.59,4 12,4 c 4.41,0 8,3.59 8,8 0,4.41 -3.59,8 -8,8 z"
     id="path4-9"
     style="fill:#b8860b;fill-opacity:1;stroke-width:1"
     sodipodi:nodetypes="ssssssssss" />
</svg>
