<?xml version="1.0" encoding="UTF-8" standalone="no"?>
<svg
   xmlns:dc="http://purl.org/dc/elements/1.1/"
   xmlns:cc="http://creativecommons.org/ns#"
   xmlns:rdf="http://www.w3.org/1999/02/22-rdf-syntax-ns#"
   xmlns:svg="http://www.w3.org/2000/svg"
   xmlns="http://www.w3.org/2000/svg"
   xmlns:sodipodi="http://sodipodi.sourceforge.net/DTD/sodipodi-0.dtd"
   xmlns:inkscape="http://www.inkscape.org/namespaces/inkscape"
   fill="#000000"
   height="48"
   viewBox="0 0 24 24"
   width="48"
   version="1.1"
   id="svg6"
   sodipodi:docname="revert.svg"
   inkscape:version="0.92.2 (5c3e80d, 2017-08-06)">
  <metadata
     id="metadata12">
    <rdf:RDF>
      <cc:Work
         rdf:about="">
        <dc:format>image/svg+xml</dc:format>
        <dc:type
           rdf:resource="http://purl.org/dc/dcmitype/StillImage" />
        <dc:title></dc:title>
      </cc:Work>
    </rdf:RDF>
  </metadata>
  <defs
     id="defs10">
    <marker
       inkscape:stockid="Arrow1Sstart"
       orient="auto"
       refY="0.0"
       refX="0.0"
       id="Arrow1Sstart"
       style="overflow:visible"
       inkscape:isstock="true">
      <path
         id="path910"
         d="M 0.0,0.0 L 5.0,-5.0 L -12.5,0.0 L 5.0,5.0 L 0.0,0.0 z "
         style="fill-rule:evenodd;stroke:#0000ff;stroke-width:1pt;stroke-opacity:0.42211058;fill:#0000ff;fill-opacity:0.42211058"
         transform="scale(0.2) translate(6,0)" />
    </marker>
    <marker
       inkscape:stockid="Arrow2Lstart"
       orient="auto"
       refY="0.0"
       refX="0.0"
       id="Arrow2Lstart"
       style="overflow:visible"
       inkscape:isstock="true">
      <path
         id="path916"
         style="fill-rule:evenodd;stroke-width:0.625;stroke-linejoin:round;stroke:#0000ff;stroke-opacity:0.42211058;fill:#0000ff;fill-opacity:0.42211058"
         d="M 8.7185878,4.0337352 L -2.2072895,0.016013256 L 8.7185884,-4.0017078 C 6.9730900,-1.6296469 6.9831476,1.6157441 8.7185878,4.0337352 z "
         transform="scale(1.1) translate(1,0)" />
    </marker>
  </defs>
  <sodipodi:namedview
     pagecolor="#ffffff"
     bordercolor="#666666"
     borderopacity="1"
     objecttolerance="10"
     gridtolerance="10"
     guidetolerance="10"
     inkscape:pageopacity="0"
     inkscape:pageshadow="2"
     inkscape:window-width="1920"
     inkscape:window-height="1017"
     id="namedview8"
     showgrid="false"
     inkscape:zoom="19.666667"
     inkscape:cx="23.620231"
     inkscape:cy="24.653237"
     inkscape:window-x="-8"
     inkscape:window-y="-8"
     inkscape:window-maximized="1"
     inkscape:current-layer="g1406" />
  <path
     d="M0 0h24v24H0z"
     fill="none"
     id="path2" />
  <path
     inkscape:connector-curvature="0"
     d="M 12,2.0000001 C 6.4800009,2.0000001 1.9999999,6.4799997 1.9999999,12 1.9999999,17.52 6.4800009,22 12,22 17.52,22 22,17.52 22,12 22,6.4799997 17.52,2.0000001 12,2.0000001 Z M 12,20 C 7.5900009,20 4,16.41 4,12 4,7.5899997 7.5900009,3.9999997 12,3.9999997 c 4.41,0 8,3.59 8,8.0000003 0,4.41 -3.59,8 -8,8 z"
     id="path4-9"
     style="fill:#0000b4;fill-opacity:1;stroke-width:1"
     sodipodi:nodetypes="ssssssssss" />
  <g
     id="g1406"
     transform="matrix(0.79380273,0,0,0.79380273,2.1389306,2.8634847)">
    <path
       sodipodi:nodetypes="cccc"
       style="fill:#0000b4;fill-opacity:1;stroke:none;stroke-width:0.62740016;stroke-opacity:0.42211058"
       inkscape:connector-curvature="0"
       id="path4"
       d="M 5.8135593,8.6766993 V 14.323301 H 11.460161 Z" />
    <path
       sodipodi:open="true"
       d="m 8.3348824,11.682137 a 5.8306179,5.796 0 0 1 5.3504266,-1.439157 5.8306179,5.796 0 0 1 4.143658,3.659603"
       sodipodi:end="5.9341195"
       sodipodi:start="3.952801"
       sodipodi:ry="5.796"
       sodipodi:rx="5.8306179"
       sodipodi:cy="15.884932"
       sodipodi:cx="12.349978"
       sodipodi:type="arc"
       id="path894"
       style="fill:none;fill-opacity:0.68341711;stroke:#0000b4;stroke-width:2.51951766;stroke-miterlimit:4;stroke-dasharray:none;stroke-opacity:1" />
  </g>
</svg>
