<?xml version="1.0" encoding="UTF-8" standalone="no"?>
<svg
   xmlns:dc="http://purl.org/dc/elements/1.1/"
   xmlns:cc="http://creativecommons.org/ns#"
   xmlns:rdf="http://www.w3.org/1999/02/22-rdf-syntax-ns#"
   xmlns:svg="http://www.w3.org/2000/svg"
   xmlns="http://www.w3.org/2000/svg"
   xmlns:sodipodi="http://sodipodi.sourceforge.net/DTD/sodipodi-0.dtd"
   xmlns:inkscape="http://www.inkscape.org/namespaces/inkscape"
   fill="#000000"
   height="48"
   viewBox="0 0 24 24"
   width="48"
   version="1.1"
   id="svg6"
   sodipodi:docname="target.svg"
   inkscape:version="0.92.2 (5c3e80d, 2017-08-06)">
  <metadata
     id="metadata12">
    <rdf:RDF>
      <cc:Work
         rdf:about="">
        <dc:format>image/svg+xml</dc:format>
        <dc:type
           rdf:resource="http://purl.org/dc/dcmitype/StillImage" />
      </cc:Work>
    </rdf:RDF>
  </metadata>
  <defs
     id="defs10" />
  <sodipodi:namedview
     pagecolor="#ffffff"
     bordercolor="#666666"
     borderopacity="1"
     objecttolerance="10"
     gridtolerance="10"
     guidetolerance="10"
     inkscape:pageopacity="0"
     inkscape:pageshadow="2"
     inkscape:window-width="1245"
     inkscape:window-height="816"
     id="namedview8"
     showgrid="false"
     inkscape:zoom="9.8333333"
     inkscape:cx="23.794556"
     inkscape:cy="24.426407"
     inkscape:window-x="0"
     inkscape:window-y="0"
     inkscape:window-maximized="0"
     inkscape:current-layer="svg6" />
  <path
     d="m 6.1525424,10.050847 v 3.898306 h 2.59887 L 12,17.19774 V 6.8022599 L 8.7514124,10.050847 Z M 14.923729,12 c 0,-1.15 -0.662712,-2.1375706 -1.624294,-2.6183616 V 14.611864 C 14.261017,14.137571 14.923729,13.15 14.923729,12 Z M 13.299435,6.3019774 v 1.3384181 c 1.877684,0.558757 3.248588,2.3 3.248588,4.3596045 0,2.059605 -1.370904,3.800847 -3.248588,4.359605 v 1.338418 C 15.904802,17.10678 17.847458,14.780791 17.847458,12 c 0,-2.780791 -1.942656,-5.1067797 -4.548023,-5.6980226 z"
     id="path2"
     inkscape:connector-curvature="0"
     style="stroke-width:0.64971751;fill:#ffa500;fill-opacity:1" />
  <path
     d="M0 0h24v24H0z"
     fill="none"
     id="path4" />
  <path
     inkscape:connector-curvature="0"
     d="M 12,1.9999999 C 6.480001,1.9999999 2,6.4799999 2,12 2,17.52 6.480001,22 12,22 17.52,22 22,17.52 22,12 22,6.4799999 17.52,1.9999999 12,1.9999999 Z M 12,20 C 7.590001,20 4,16.41 4,12 4,7.5899999 7.590001,3.9999999 12,3.9999999 c 4.41,0 8,3.59 8,8.0000001 0,4.41 -3.59,8 -8,8 z"
     id="path4-9"
     style="fill:#ffa500;fill-opacity:1;stroke-width:1"
     sodipodi:nodetypes="ssssssssss" />
</svg>
